<svg width="1058" height="1383" viewBox="0 0 1058 1383" fill="none" xmlns="http://www.w3.org/2000/svg">
<path d="M445.217 957.063C415.611 969.672 404.367 1000.58 423.717 1018.23C463.527 1054.54 627.422 1036.6 635.133 1011.99C642.73 987.74 506.993 930.745 445.217 957.063Z" stroke="#82FF1F" stroke-opacity="0.05" stroke-width="3" stroke-miterlimit="10"/>
<path d="M518.575 876.301C586.199 852.205 699.748 1023.76 652.878 1064.26C624.061 1089.16 554.3 1086.05 497.411 1077.87C444.005 1070.19 367.695 1038.77 348.868 986.603C338.899 958.907 344.883 919.448 365.996 905.629C382.336 894.937 404.395 899.747 409.261 897.969C432.46 907.757 435.864 911.562 454.347 913.858C478.506 916.86 499.977 882.926 518.575 876.301Z" stroke="#82FF1F" stroke-opacity="0.05" stroke-width="3" stroke-miterlimit="10"/>
<path d="M587.188 791.923C665.728 804.678 751.076 1055.25 665.878 1112.92C611.619 1149.64 517.027 1133.43 451.093 1114.01C390.528 1096.18 289.678 1036.66 269.275 951.363C257.414 901.803 271.826 832.082 313.121 811.915C346.037 795.844 388.449 809.663 395.917 810.727C440.057 834.881 443.626 847.169 476.492 855.441C520.008 866.381 554.365 786.566 587.188 791.923Z" stroke="#82FF1F" stroke-opacity="0.05" stroke-width="3" stroke-miterlimit="10"/>
<path d="M650.828 708.107C737.545 731.619 797.43 1087.1 673.905 1162.13C594.183 1210.55 474.729 1181.5 399.801 1150.71C332.019 1122.86 207.054 1035.22 184.708 916.678C171.228 845.187 193.724 745.358 255.264 718.755C304.714 697.371 367.867 719.316 377.585 724.039C445.525 757.078 446.385 783.33 493.685 797.579C556.515 816.558 605.413 695.819 650.828 708.107Z" stroke="#82FF1F" stroke-opacity="0.05" stroke-width="3" stroke-miterlimit="10"/>
<path d="M710.641 628.103C806.675 662.023 839.799 1122.41 678.105 1215.16C572.812 1275.02 428.547 1233.47 344.69 1191.23C269.612 1153.43 120.688 1037.68 96.2859 885.805C81.2861 792.448 111.766 662.474 193.559 629.393C259.571 602.717 342.963 634.006 355.411 641.141C442.988 691.344 445.252 723.413 506.972 743.536C589.13 770.554 653.157 607.804 710.641 628.103Z" stroke="#82FF1F" stroke-opacity="0.05" stroke-width="3" stroke-miterlimit="10"/>
<path d="M129.167 541.094C211.712 509.134 315.292 549.723 330.55 559.315C437.527 626.572 441.483 664.318 517.6 690.506C619.101 725.424 698.637 520.249 767.717 549.111C873.826 593.446 879.782 1159.32 679.567 1269.2C548.925 1340.9 379.57 1286.5 286.833 1232.76C204.474 1185.04 31.7 1041.19 5.18328 855.952C-11.3001 740.737 27.1061 580.604 129.167 541.094Z" stroke="#82FF1F" stroke-opacity="0.05" stroke-width="3" stroke-miterlimit="10"/>
<path d="M1022.39 482.787C989.876 482.51 950.882 425.158 980.043 415.581C996.885 410.042 1041.48 418.802 1058.99 434.392C1083.66 456.33 1044.77 482.984 1022.39 482.787Z" stroke="#82FF1F" stroke-opacity="0.05" stroke-width="3" stroke-miterlimit="10"/>
<path d="M934.026 423.613C937.208 415.916 952.108 412.498 965.703 403.125C993.28 384.102 997.236 375.065 1016.82 363.593C1024.46 359.111 1034.74 353.222 1044.77 355.918C1060.14 360.051 1063.97 377.937 1083.47 409.437C1108.76 450.368 1118.33 460.951 1111.11 482.641C1109.42 487.685 1107.24 504.018 1095.07 513.981C1078.21 527.756 1058.44 517.115 1033.73 526.233C1004.05 537.166 989.339 556.625 976.46 548.025C967.387 541.969 967.05 525.38 960.256 496.496C955.082 474.493 951.828 460.055 945.536 448.277C937.989 434.254 930.486 432.169 934.026 423.613Z" stroke="#82FF1F" stroke-opacity="0.05" stroke-width="3" stroke-miterlimit="10"/>
<path d="M884.325 439.654C884.877 426.011 905.947 419.407 923.312 399.692C958.923 359.249 942.426 330.351 970.971 300.804C983.082 288.26 1002.09 276.111 1021.14 278.465C1048.17 281.81 1057.25 310.213 1098.87 367.798C1153.28 443.087 1176.45 457.832 1171.37 497.954C1170.33 506.132 1169.32 537.53 1148.06 556.429C1119.7 581.632 1085.71 558.703 1041.31 577.645C991.704 598.781 973.163 643.969 956.436 634.618C944.819 628.124 949.27 601.974 940.34 550.97C934.019 514.717 930.113 493.53 917.479 476.176C901.533 454.29 883.731 454.472 884.325 439.654Z" stroke="#82FF1F" stroke-opacity="0.05" stroke-width="3" stroke-miterlimit="10"/>
<path d="M834.575 455.521C832.425 435.967 859.708 426.134 880.871 396.077C924.444 334.199 886.877 285.833 925.068 237.832C941.415 217.294 969.451 198.92 997.451 200.836C1036.26 203.489 1050.6 242.191 1114.27 325.985C1197.97 435.471 1234.02 454.749 1231.66 513.092C1231.19 524.469 1231.41 570.852 1201.07 598.723C1161.21 635.333 1112.92 600.071 1048.92 628.897C979.334 660.237 957.031 731.131 936.406 721.058C922.251 714.091 931.317 678.407 920.417 605.283C912.892 554.781 908.355 526.947 889.407 503.916C864.983 474.238 836.875 476.585 834.575 455.521Z" stroke="#82FF1F" stroke-opacity="0.05" stroke-width="3" stroke-miterlimit="10"/>
<path d="M784.709 471.344C779.886 445.901 813.304 432.803 838.316 392.426C889.758 309.076 831.041 241.433 879.058 174.824C899.583 146.327 936.721 121.721 973.658 123.164C1024.27 125.147 1043.64 174.278 1129.53 284.135C1242.26 428.008 1291.33 451.768 1291.76 528.194C1291.85 542.77 1293.27 604.095 1253.9 640.974C1202.48 688.946 1139.99 641.375 1056.35 680.112C966.764 721.612 940.699 818.278 916.26 807.462C899.562 800.042 913.25 754.796 900.379 659.559C891.628 594.802 886.49 560.357 861.227 531.619C828.304 494.186 789.898 498.705 784.709 471.344Z" stroke="#82FF1F" stroke-opacity="0.05" stroke-width="3" stroke-miterlimit="10"/>
<path d="M734.75 487.16C742.827 520.832 791.517 514.127 832.933 559.315C864.517 593.767 870.257 634.808 880.233 713.828C895.047 831.171 876.757 885.987 896 893.851C924.287 905.418 954.107 782.973 1063.7 731.32C1166.94 682.663 1243.77 742.647 1306.65 683.217C1355.13 637.395 1352.43 561.13 1351.8 543.28C1348.46 448.794 1286.46 420.53 1144.68 242.271C1036.57 106.35 1012.19 46.804 949.75 45.4848C903.883 44.5155 857.622 75.3672 832.933 111.809C775.12 197.083 855.1 284.04 795.667 388.767C766.864 439.516 727.232 455.835 734.75 487.16Z" stroke="#82FF1F" stroke-opacity="0.05" stroke-width="3" stroke-miterlimit="10"/>
<path d="M1147.94 1029.12C1139.46 1024.75 1121.64 1033.18 1120.07 1046.3C1118.28 1061.19 1138.44 1073.51 1147.3 1069.68C1157.78 1065.15 1159.2 1034.91 1147.94 1029.12Z" stroke="#82FF1F" stroke-opacity="0.05" stroke-width="3" stroke-miterlimit="10"/>
<path d="M1171.85 1108.24C1186.31 1094.49 1192.64 1069.25 1199.87 1025.98C1207.03 983.083 1205.91 952.369 1199.61 950.139C1196.18 948.936 1186.45 958.346 1178.11 965.241C1162.49 978.112 1135.76 976.683 1128.91 978.075C1103.83 983.177 1096.46 992.652 1085.97 1010.8C1081.12 1019.18 1069.81 1037.77 1064.83 1059.63C1057.23 1092.74 1023.18 1102.95 1027.33 1116.22C1030.82 1127.3 1064.55 1129.99 1086.43 1130.3C1117.77 1130.75 1149.49 1129.48 1171.85 1108.24Z" stroke="#82FF1F" stroke-opacity="0.05" stroke-width="3" stroke-miterlimit="10"/>
<path d="M1196.92 1145.21C1220.69 1120.64 1230.05 1079.39 1244.45 1002.26C1259.08 924.754 1258.99 871.592 1251.78 869.61C1246.37 868.094 1228.85 887.255 1213.96 900.95C1185.88 926.875 1135.63 922.611 1125.28 924.273C1078.05 931.692 1066.41 949.468 1048.11 983.068C1040.48 997.062 1019.56 1031.17 1010.03 1071.45C995.359 1133.16 925.806 1149.32 931.561 1172.2C936.37 1191.25 1000.87 1194.18 1041.45 1192.61C1098.76 1190.34 1156.75 1186.76 1196.92 1145.21Z" stroke="#82FF1F" stroke-opacity="0.05" stroke-width="3" stroke-miterlimit="10"/>
<path d="M1221.85 1181.95C1254.96 1146.55 1267.23 1089.27 1288.89 978.294C1310.89 866.162 1311.91 790.677 1303.81 788.796C1296.39 787.047 1271.09 815.909 1249.69 836.441C1209.23 875.484 1135.4 868.305 1121.53 870.186C1052.17 879.602 1036.19 905.935 1010.12 955.059C999.716 974.657 969.207 1024.3 955.111 1082.98C933.388 1173.29 828.325 1195.39 835.671 1227.88C841.806 1254.91 937.086 1258.18 996.369 1254.6C1079.62 1249.83 1163.97 1243.84 1221.85 1181.95Z" stroke="#82FF1F" stroke-opacity="0.05" stroke-width="3" stroke-miterlimit="10"/>
<path d="M1246.71 1218.66C1289.16 1172.45 1304.35 1099.13 1333.26 954.301C1362.64 807.557 1364.79 709.769 1355.78 707.954C1346.35 706.037 1313.24 744.483 1285.35 771.866C1232.43 823.941 1135.09 813.92 1117.72 816.07C1026.23 827.359 1005.79 862.314 972.067 927.013C958.837 952.202 918.783 1017.39 900.135 1094.47C871.339 1213.39 730.765 1241.43 739.724 1283.54C747.17 1318.52 873.231 1322.01 951.219 1316.58C1060.37 1309.09 1171.14 1300.92 1246.71 1218.66Z" stroke="#82FF1F" stroke-opacity="0.05" stroke-width="3" stroke-miterlimit="10"/>
<path d="M1113.87 761.932C1000.25 775.051 975.55 818.781 933.983 898.953C918.002 929.775 868.322 1010.46 845.117 1105.94C809.283 1253.47 633.177 1287.46 643.733 1339.17C652.505 1382.17 809.341 1385.82 906.033 1378.53C1041.14 1368.32 1178.29 1357.99 1271.53 1255.35C1323.34 1198.32 1341.43 1108.98 1377.6 930.293C1414.31 748.929 1417.59 628.86 1407.7 627.097C1396.23 625.056 1355.38 673.013 1320.98 707.269C1255.59 772.368 1134.76 759.519 1113.87 761.932Z" stroke="#82FF1F" stroke-opacity="0.05" stroke-width="3" stroke-miterlimit="10"/>
<path d="M190.083 411.361C202.983 461.651 295.577 438.029 405.8 551.298C445.295 591.887 471.776 634.341 524.05 640.945C529.325 641.608 581.692 647.431 618.65 613.249C665.147 570.247 636.767 510.592 691.033 427.395C711.021 396.748 714.347 405.647 729.017 381.479C791.625 278.312 696.136 173.578 751.233 68.8076C776.596 20.5805 814.3 9.50945 810.717 3.2123C795.251 -23.8057 155.225 275.848 190.083 411.361Z" stroke="#82FF1F" stroke-opacity="0.05" stroke-width="3" stroke-miterlimit="10"/>
<path d="M538.383 572.193C541.551 571.756 576.08 574.38 599.766 550.212C629.715 519.695 608.366 477.678 642.68 420.953C655.308 400.064 657.063 405.727 666.05 389.204C704.392 318.697 635.578 247.766 669.275 178.745C684.87 146.793 709.487 139.468 705.825 136.349C689.263 122.122 266.81 332.297 299.991 423.751C312.433 458.05 380.351 445.879 458.066 519.754C486.325 546.597 505.46 576.734 538.383 572.193Z" stroke="#82FF1F" stroke-opacity="0.05" stroke-width="3" stroke-miterlimit="10"/>
<path d="M552.717 503.435C553.62 501.125 570.504 501.176 580.882 487.175C594.355 469.012 580.007 444.815 594.326 414.517C599.579 403.395 599.794 405.771 603.091 396.93C617.245 358.907 574.962 321.998 587.324 288.676C593.108 272.991 603.858 270.316 600.991 269.478C580.036 272.503 378.825 388.949 409.863 436.141C421.982 454.581 465.362 453.699 510.297 488.21C527.375 501.329 538.555 510.935 552.717 503.435Z" stroke="#82FF1F" stroke-opacity="0.05" stroke-width="3" stroke-miterlimit="10"/>
<path d="M567.05 434.684C555.927 401.631 512.139 390.392 496.1 402.615C472.45 420.661 492.624 444.159 519.75 448.532C540.024 451.775 579.778 472.51 567.05 434.684Z" stroke="#82FF1F" stroke-opacity="0.05" stroke-width="3" stroke-miterlimit="10"/>
</svg>
